<mxfile host="app.diagrams.net" modified="2024-07-15T02:59:45.304Z" agent="Mozilla/5.0 (Windows NT 10.0; Win64; x64) AppleWebKit/537.36 (KHTML, like Gecko) Chrome/123.0.0.0 Safari/537.36 Edg/123.0.0.0" version="24.6.5" etag="4X1YJwJU_nVkMncsFBvP" type="github">
  <diagram name="第 1 页" id="PCTm1NOM1KoxqAh_aH9J">
    <mxGraphModel>
      <root>
        <mxCell id="0" />
        <mxCell id="1" parent="0" />
      </root>
    </mxGraphModel>
  </diagram>
</mxfile>
